<?xml version="1.0" standalone="no"?>
<!DOCTYPE svg PUBLIC "-//W3C//DTD SVG 20010904//EN"
 "http://www.w3.org/TR/2001/REC-SVG-20010904/DTD/svg10.dtd">
<svg version="1.0" xmlns="http://www.w3.org/2000/svg"
 width="537.000000pt" height="537.000000pt" viewBox="0 0 537.000000 537.000000"
 preserveAspectRatio="xMidYMid meet">
<metadata>
Created by potrace 1.11, written by Peter Selinger 2001-2013
</metadata>
<g transform="translate(0.000000,537.000000) scale(0.100000,-0.100000)"
fill="#000000" stroke="none">
<path d="M597 2693 c1 -1270 2 -2312 2 -2316 1 -9 74 30 301 158 41 23 98 55
125 70 237 132 561 313 595 332 19 11 240 134 490 273 250 140 473 264 495
277 22 12 47 26 55 30 17 8 202 112 270 151 25 15 47 27 50 27 3 0 16 8 30 16
14 9 93 54 175 99 138 77 325 181 435 242 25 14 162 91 305 170 143 80 283
158 310 173 287 161 379 212 435 242 36 20 68 39 72 42 6 5 -420 252 -556 322
-17 9 -49 26 -71 39 -22 12 -60 34 -85 48 -25 14 -79 44 -120 67 -41 23 -102
57 -135 75 -33 18 -166 93 -295 165 -233 131 -653 365 -740 413 -25 14 -74 41
-110 62 -36 20 -90 51 -120 67 -83 45 -561 312 -595 333 -16 10 -57 32 -90 50
-61 33 -73 40 -225 125 -144 81 -482 271 -535 300 -27 15 -142 79 -254 141
-112 63 -206 114 -210 114 -3 0 -5 -1038 -4 -2307z m528 1611 c22 -13 67 -37
100 -55 33 -17 77 -43 97 -55 21 -13 40 -24 42 -24 2 0 43 -22 91 -50 48 -27
88 -50 90 -50 2 0 26 -13 53 -29 45 -27 121 -69 197 -110 17 -9 32 -18 35 -21
3 -3 19 -12 35 -21 83 -45 174 -96 440 -244 160 -89 427 -239 595 -333 168
-93 328 -183 356 -198 28 -16 212 -119 408 -228 312 -174 354 -200 338 -211
-9 -7 -134 -78 -277 -158 -143 -79 -278 -155 -300 -167 -22 -12 -139 -78 -260
-145 -121 -67 -238 -132 -260 -145 -22 -12 -80 -45 -130 -73 -49 -27 -109 -60
-132 -73 -24 -13 -78 -43 -120 -67 -43 -24 -105 -59 -138 -77 -33 -18 -152
-85 -265 -148 -113 -63 -234 -131 -270 -150 -36 -20 -82 -46 -102 -59 -21 -13
-40 -23 -42 -23 -3 0 -27 -13 -53 -28 -26 -16 -77 -44 -113 -64 -36 -20 -159
-89 -275 -153 -115 -65 -233 -130 -261 -146 l-52 -29 0 1715 0 1716 67 -38
c36 -20 84 -47 106 -59z"/>
</g>
</svg>
